<?xml version="1.0" standalone="no"?>
<!DOCTYPE svg PUBLIC "-//W3C//DTD SVG 20010904//EN" "http://www.w3.org/TR/2001/REC-SVG-20010904/DTD/svg10.dtd">
<!-- Created using Krita: https://krita.org -->
<svg xmlns="http://www.w3.org/2000/svg" 
    xmlns:xlink="http://www.w3.org/1999/xlink"
    xmlns:krita="http://krita.org/namespaces/svg/krita"
    xmlns:sodipodi="http://sodipodi.sourceforge.net/DTD/sodipodi-0.dtd"
    width="799.92pt"
    height="799.92pt"
    viewBox="0 0 799.92 799.92">
<defs/>
<path id="shape0" transform="translate(419.039991455078, 100.439991455085)" fill="#ffffff" fill-rule="evenodd" stroke-opacity="0" stroke="#000000" stroke-width="0" stroke-linecap="square" stroke-linejoin="bevel" d="M0 48L44.64 46.08L79.2 0L125.76 13.92L180.96 80.16L198.72 127.68L152.16 151.2L80.16 123.36L24.96 85.92Z" sodipodi:nodetypes="cccccccccc"/><path id="shape1" transform="translate(514.079991455078, 75.4799914550852)" fill="#ffffff" fill-rule="evenodd" stroke-opacity="0" stroke="#000000" stroke-width="0" stroke-linecap="square" stroke-linejoin="bevel" d="M0 17.28L85.44 0L165.12 19.2L193.44 57.6L181.44 104.64L137.28 146.4L113.76 148.32L113.76 148.32L96.96 97.92L35.04 26.88Z" sodipodi:nodetypes="ccccccccccc"/><path id="shape2" transform="translate(578.879991455078, 255.479991455085)" fill="#ffffff" fill-rule="evenodd" stroke-opacity="0" stroke="#000000" stroke-width="0" stroke-linecap="square" stroke-linejoin="bevel" d="M67.68 0L67.68 0L141.12 19.2L141.12 19.2L130.56 53.28L90.24 80.16L0 108.96L19.2 58.08L5.28 23.04Z" sodipodi:nodetypes="cccccccccc"/><path id="shape3" transform="translate(654.719991455078, 143.159991455085)" fill="#ffffff" fill-rule="evenodd" stroke-opacity="0" stroke="#000000" stroke-width="0" stroke-linecap="square" stroke-linejoin="bevel" d="M0 89.76L51.84 41.76L62.88 0L103.68 99.84L110.4 159.36L100.8 247.68L45.12 203.52L26.4 216.96L24.96 196.8L64.32 170.88L80.64 121.92L6.72 104.64Z" sodipodi:nodetypes="ccccccccccccc"/><path id="shape4" transform="translate(680.639991455078, 361.079991455085)" fill="#ffffff" fill-rule="evenodd" stroke-opacity="0" stroke="#000000" stroke-width="0" stroke-linecap="square" stroke-linejoin="bevel" d="M0.48 58.08L0 11.04L18.24 0L71.04 41.52L56.28 85.44L13.8 49.08Z" sodipodi:nodetypes="ccccccc"/><path id="shape5" transform="translate(637.19999145506, 386.399991455074)" fill="#ffffff" fill-rule="evenodd" stroke-opacity="0" stroke="#000000" stroke-width="0" stroke-linecap="square" stroke-linejoin="bevel" d="M55.44 38.88L34.2 50.04L9.36 0L0 1.08L1.8 55.8L36.72 110.16L73.08 110.16L93.96 72Z" sodipodi:nodetypes="ccccccccc"/><path id="shape6" transform="translate(496.799991455078, 458.039991455085)" fill="#ffffff" fill-rule="evenodd" stroke-opacity="0" stroke="#000000" stroke-width="0" stroke-linecap="square" stroke-linejoin="bevel" d="M50.88 0L50.88 0L42.72 109.44L0 192.48Z" sodipodi:nodetypes="ccccc"/><path id="shape01" transform="matrix(-1 0 0 1 380.879991455078 100.439991455085)" fill="#ffffff" fill-rule="evenodd" stroke-opacity="0" stroke="#000000" stroke-width="0" stroke-linecap="square" stroke-linejoin="bevel" d="M0 48L44.64 46.08L79.2 0L125.76 13.92L180.96 80.16L198.72 127.68L152.16 151.2L80.16 123.36L24.96 85.92Z" sodipodi:nodetypes="cccccccccc"/><path id="shape11" transform="matrix(-1 0 0 1 285.839991455078 75.4799914550852)" fill="#ffffff" fill-rule="evenodd" stroke-opacity="0" stroke="#000000" stroke-width="0" stroke-linecap="square" stroke-linejoin="bevel" d="M0 17.28L85.44 0L165.12 19.2L193.44 57.6L181.44 104.64L137.28 146.4L113.76 148.32L113.76 148.32L96.96 97.92L35.04 26.88Z" sodipodi:nodetypes="ccccccccccc"/><path id="shape21" transform="matrix(-1 0 0 1 221.039991455078 255.479991455085)" fill="#ffffff" fill-rule="evenodd" stroke-opacity="0" stroke="#000000" stroke-width="0" stroke-linecap="square" stroke-linejoin="bevel" d="M67.68 0L67.68 0L141.12 19.2L141.12 19.2L130.56 53.28L90.24 80.16L0 108.96L19.2 58.08L5.28 23.04Z" sodipodi:nodetypes="cccccccccc"/><path id="shape31" transform="matrix(-1 0 0 1 145.199991455078 143.159991455085)" fill="#ffffff" fill-rule="evenodd" stroke-opacity="0" stroke="#000000" stroke-width="0" stroke-linecap="square" stroke-linejoin="bevel" d="M0 89.76L51.84 41.76L62.88 0L103.68 99.84L110.4 159.36L100.8 247.68L45.12 203.52L26.4 216.96L24.96 196.8L64.32 170.88L80.64 121.92L6.72 104.64Z" sodipodi:nodetypes="ccccccccccccc"/><path id="shape41" transform="matrix(-1 0 0 1 119.279991455078 361.079991455085)" fill="#ffffff" fill-rule="evenodd" stroke-opacity="0" stroke="#000000" stroke-width="0" stroke-linecap="square" stroke-linejoin="bevel" d="M0.48 58.08L0 11.04L18.24 0L71.04 41.52L56.28 85.44L13.8 49.08Z" sodipodi:nodetypes="ccccccc"/><path id="shape51" transform="matrix(-1 0 0 1 162.719991455096 386.399991455074)" fill="#ffffff" fill-rule="evenodd" stroke-opacity="0" stroke="#000000" stroke-width="0" stroke-linecap="square" stroke-linejoin="bevel" d="M55.44 38.88L34.2 50.04L9.36 0L0 1.08L1.8 55.8L36.72 110.16L73.08 110.16L93.96 72Z" sodipodi:nodetypes="ccccccccc"/><path id="shape61" transform="matrix(-1 0 0 1 303.119991455078 458.039991455085)" fill="#ffffff" fill-rule="evenodd" stroke-opacity="0" stroke="#000000" stroke-width="0" stroke-linecap="square" stroke-linejoin="bevel" d="M50.88 0L50.88 0L42.72 109.44L0 192.48Z" sodipodi:nodetypes="ccccc"/><path id="shape7" transform="translate(214.559991455088, 153.479991455081)" fill="#ffffff" fill-rule="evenodd" stroke-opacity="0" stroke="#000000" stroke-width="0" stroke-linecap="square" stroke-linejoin="bevel" d="M151.2 339.12L84.24 433.44L48.24 301.68L0 161.28L22.32 105.84L90.72 81.36L152.64 41.76L174.96 0L195.84 0L218.16 41.76L280.08 81.36L348.48 105.84L370.8 161.28L322.56 301.68L286.56 433.44L219.6 339.12" sodipodi:nodetypes="cccccccccccccccc"/><path id="shape8" transform="translate(303.839991455088, 506.279991455071)" fill="#ffffff" fill-rule="evenodd" stroke-opacity="0" stroke="#000000" stroke-width="0" stroke-linecap="square" stroke-linejoin="bevel" d="M69.12 0L0 95.04L20.88 188.64L64.8 218.16L127.44 218.16L171.36 188.64L192.24 95.04L123.12 0" sodipodi:nodetypes="cccccccc"/>
</svg>
